<?xml version="1.0" encoding="utf-8"?>
<svg version="1.0" xmlns="http://www.w3.org/2000/svg" viewBox="18 18 285 155" preserveAspectRatio="xMidYMid meet">
 <g fill="#e4131e">
  <path d="M31.77 130.98 c-2.27 -0.81 -4.15 -2.54 -5.42 -5 l-1.15 -2.23 0.15 -21.20 c0.38 -57.78 0.62 -72.28 1.27 -73.74 0.85 -1.92 2.85 -4.08 4.69 -5.08 l1.58 -0.85 34.24 -0.12 c22.73 -0.08 34.70 0 35.58 0.27 2 0.58 4.58 2.96 5.62 5.19 l0.92 1.96 -0.04 23.08 c-0.04 12.69 -0.15 33.74 -0.31 46.74 -0.23 21.27 -0.35 23.81 -0.92 25.16 -1.08 2.42 -2.46 4 -4.62 5.23 l-2 1.15 -34.04 -0.04 c-27.97 0 -34.31 -0.08 -35.54 -0.54z m32.08 -27.20 c0 -11.93 0.12 -22.04 0.23 -22.54 l0.23 -0.85 -16.08 0.08 -16.12 0.12 0 20.58 c0 19.97 0.04 20.62 0.77 21.62 0.42 0.58 1.46 1.42 2.31 1.85 1.46 0.73 2.27 0.77 15.12 0.77 l13.54 0 0 -21.62z m34.54 21.08 c1.73 -0.92 3.08 -2.62 3.50 -4.46 0.27 -1.08 0.42 -9.12 0.42 -20.85 l0 -19.16 -15.70 0 -15.73 0 -0.23 3.77 c-0.15 2.04 -0.27 12.16 -0.27 22.50 l0 18.73 13.46 0 c10.89 0 13.69 -0.12 14.54 -0.54z m-34.16 -69.40 c0 -10.16 0.12 -20.27 0.27 -22.54 l0.23 -4.12 -14.31 0.12 -14.31 0.12 -1.69 1.77 c-1.42 1.50 -1.69 2.08 -1.88 3.85 -0.15 1.15 -0.27 10.42 -0.35 20.66 l-0.08 18.54 16.08 0 16.04 0 0 -18.39z m38.47 -2.04 c0 -19.97 -0.04 -20.47 -0.81 -21.73 -0.42 -0.69 -1.35 -1.62 -2.04 -2.04 -1.23 -0.77 -1.85 -0.81 -14.93 -0.81 l-13.66 0 -0.23 14.50 c-0.15 7.96 -0.27 18.08 -0.27 22.50 l0 8 15.96 0 15.96 0 0 -20.43z"/>
  <path d="M127.33 131.22 c-2.65 -0.81 -5.04 -2.85 -6.39 -5.42 -1 -1.92 -1.08 -6.42 -0.58 -54.20 0.31 -29.77 0.54 -41.05 0.88 -42.16 0.65 -2.08 4.31 -5.73 6.31 -6.31 1.04 -0.27 12.19 -0.42 35.74 -0.42 l34.24 0 2 1.15 c2.08 1.19 3.19 2.50 4.23 4.89 0.54 1.31 0.58 4.85 0.50 33.78 -0.04 17.77 -0.19 38.97 -0.35 47.12 l-0.23 14.81 -1.04 1.73 c-1.35 2.27 -3.19 3.96 -5.23 4.77 -1.46 0.54 -4.92 0.62 -35.39 0.58 -18.54 0 -34.16 -0.15 -34.70 -0.31z m66.74 -6.69 c0.96 -0.54 1.85 -1.42 2.35 -2.42 0.77 -1.58 0.81 -2.27 1.08 -25.58 0.12 -13.19 0.27 -32.89 0.27 -43.74 0.04 -18.66 0 -19.77 -0.69 -20.97 -0.42 -0.65 -1.31 -1.62 -2.04 -2.08 l-1.27 -0.88 -31.16 0 c-30.20 0 -31.20 0.04 -32.35 0.77 -0.69 0.38 -1.62 1.42 -2.08 2.23 l-0.85 1.50 -0.38 43.16 c-0.23 23.73 -0.27 43.62 -0.15 44.20 0.42 1.69 1.69 3.19 3.39 3.96 1.50 0.69 3.15 0.73 31.97 0.73 l30.39 0 1.54 -0.88z"/>
  <path d="M129.52 78.17 c-0.42 -0.46 -0.65 -1.38 -0.65 -2.50 0 -2.85 0.35 -2.96 9.27 -2.96 8.50 0 8.04 -0.15 8.04 2.92 0 3.31 0.23 3.23 -8.42 3.23 -6.89 0 -7.66 -0.08 -8.23 -0.69z"/>
  <path d="M221.89 130.98 c-2.46 -0.88 -4.08 -2.42 -5.35 -5.04 l-1.23 -2.46 0.38 -46.62 c0.31 -42.58 0.38 -46.78 1 -48.09 0.92 -2.04 2.81 -4.08 4.65 -5.04 2.19 -1.12 9.31 -1.35 42.97 -1.38 29.43 -0.04 28.70 -0.08 31.62 2.31 0.77 0.65 1.88 2 2.50 2.96 l1.04 1.81 0.04 27.70 c0 15.23 -0.08 36.54 -0.19 47.32 -0.27 21.73 -0.15 20.93 -2.89 23.97 -0.77 0.85 -2.19 1.92 -3.12 2.35 -1.69 0.81 -1.96 0.81 -35.85 0.77 -28 0 -34.43 -0.12 -35.58 -0.54z m67.63 -6.54 c1.08 -0.62 1.88 -1.50 2.42 -2.62 0.77 -1.58 0.81 -2.27 0.81 -13.85 l0 -12.19 -35.39 0 -35.39 0 0 12.27 c0 12.73 0.12 13.69 1.65 15.39 1.85 2 0.96 1.92 33.70 1.96 l30.54 0 1.65 -0.96z m3.15 -36.04 l0.12 -1.08 -35.20 0 -35.24 0 0 0.88 c0 0.50 0.12 1.04 0.27 1.15 0.12 0.15 15.93 0.23 35.08 0.19 l34.85 -0.12 0.12 -1.04z m0.38 -8.27 l0.12 -0.88 -35.39 0 -35.43 0 0 0.96 0 0.96 35.31 -0.08 35.28 -0.12 0.12 -0.85z m-0.12 -8.19 l0 -0.96 -30.58 -0.12 c-16.81 -0.08 -32.70 0 -35.28 0.12 -4.23 0.23 -4.73 0.35 -4.73 0.96 0 0.54 0.35 0.77 1.46 0.88 0.77 0.08 16.66 0.12 35.28 0.12 l33.85 -0.04 0 -0.96z m0.19 -8.27 l0 -0.96 -35.39 0 -35.39 0 0 0.96 0 0.96 35.39 0 35.39 0 0 -0.96z m0 -8.27 l0 -1.15 -35.28 0.08 -35.31 0.12 -0.12 1.08 -0.12 1.04 35.39 0 35.43 0 0 -1.15z m-0.08 -8.16 l0.12 -1.08 -35.39 0 -35.43 0 0 0.96 0 0.96 8 0.12 c4.39 0.04 20.27 0.08 35.28 0.08 l27.31 0 0.12 -1.04z m0.08 -8.19 l0 -0.96 -35.16 0 c-24.12 0 -35.28 0.12 -35.43 0.38 -0.15 0.23 -0.15 0.65 -0.04 0.96 0.19 0.50 5 0.58 35.43 0.58 l35.20 0 0 -0.96z m-1.31 -7.92 c-0.31 -0.46 -1.08 -1.15 -1.65 -1.54 -1.04 -0.69 -2.58 -0.73 -32.24 -0.73 -30.16 0 -31.20 0.04 -32.39 0.77 -0.65 0.38 -1.42 1.08 -1.65 1.50 l-0.42 0.81 34.47 0 34.47 0 -0.58 -0.81z"/>
 </g>
 <g fill="#fefefd">
  <path d="M34.04 125.79 c-0.85 -0.42 -1.88 -1.27 -2.31 -1.85 -0.73 -1 -0.77 -1.65 -0.77 -22.77 l0 -21.73 17.27 -0.12 17.27 -0.08 -0.23 2.58 c-0.15 1.46 -0.27 12.08 -0.27 23.70 l0 21.04 -14.69 0 c-14.04 0 -14.81 -0.04 -16.27 -0.77z"/>
  <path d="M69.24 106.67 c0 -10.96 0.12 -21.62 0.27 -23.66 l0.23 -3.77 16.89 0 16.85 0 0 20.31 c0 12.54 -0.15 20.93 -0.42 22 -0.42 1.85 -1.77 3.54 -3.50 4.46 -0.85 0.42 -3.81 0.54 -15.70 0.54 l-14.62 0 0 -19.89z"/>
  <path d="M31.04 55.32 c0.08 -10.85 0.23 -20.66 0.35 -21.81 0.19 -1.77 0.46 -2.35 1.88 -3.85 l1.69 -1.77 15.46 -0.12 15.46 -0.12 -0.23 5.85 c-0.15 3.23 -0.27 13.89 -0.27 23.70 l0 17.81 -17.20 0 -17.23 0 0.08 -19.70z"/>
  <path d="M69.63 65.86 c0 -5.04 0.12 -15.70 0.27 -23.66 l0.23 -14.50 14.81 0 c14.23 0 14.85 0.04 16.08 0.81 0.69 0.42 1.62 1.35 2.04 2.04 0.81 1.27 0.81 1.77 0.81 22.89 l0 21.58 -17.12 0 -17.12 0 0 -9.16z"/>
  <path d="M129.02 125.83 c-1.73 -0.81 -3 -2.31 -3.39 -4.12 -0.15 -0.62 -0.08 -21.04 0.15 -45.32 l0.38 -44.20 0.85 -1.50 c0.46 -0.81 1.38 -1.85 2.08 -2.23 1.15 -0.73 2.15 -0.77 33.51 -0.77 l32.31 0 1.27 0.88 c0.73 0.46 1.65 1.42 2.08 2.15 0.73 1.23 0.73 2 0.69 20.77 -0.04 10.69 -0.19 30.85 -0.31 44.78 -0.27 24.74 -0.31 25.39 -1.08 26.93 -0.50 1.04 -1.38 1.92 -2.35 2.46 l-1.54 0.88 -31.54 0 c-29.93 0 -31.62 -0.04 -33.12 -0.73z m15.66 -49.05 c0.27 -0.54 0.35 -1.38 0.19 -1.92 l-0.23 -1 -6.46 0 c-5.19 0 -6.62 0.12 -7.31 0.62 -1 0.69 -1.08 1.58 -0.19 2.54 0.54 0.62 1.31 0.69 7.12 0.69 l6.46 0 0.42 -0.92z"/>
  <path d="M224.46 126.02 c-1.42 -0.62 -2.69 -2 -3.23 -3.42 -0.27 -0.69 -0.42 -5.92 -0.42 -14.54 l0 -13.43 36.54 0 36.54 0 0 13.35 c0 12.77 -0.04 13.43 -0.81 15 -0.54 1.12 -1.35 2 -2.42 2.62 l-1.65 0.96 -31.70 0 c-25.54 -0.04 -31.93 -0.12 -32.85 -0.54z"/>
  <path d="M221.46 90.52 c-0.15 -0.12 -0.27 -1.15 -0.27 -2.31 l0 -2.04 36.31 0 36.35 0 0.27 1.73 c0.46 3.15 3.62 2.89 -36.58 2.89 -19.70 0 -35.97 -0.12 -36.08 -0.27z"/>
  <path d="M221.19 80.21 l0 -2.12 36.58 0 36.54 0 -0.12 2.04 -0.12 2 -36.43 0.12 -36.47 0.08 0 -2.12z"/>
  <path d="M222.65 73.97 l-1.46 -0.15 0 -1.88 0 -1.85 4.73 -0.27 c2.58 -0.12 18.96 -0.19 36.43 -0.12 l31.74 0.12 0 2.12 0 2.12 -35.01 0.04 c-19.23 0 -35.66 -0.04 -36.43 -0.12z"/>
  <path d="M221.19 63.67 l0 -2.12 36.54 0 36.54 0 0 2.12 0 2.12 -36.54 0 -36.54 0 0 -2.12z"/>
  <path d="M221.27 55.51 l0.12 -2.23 36.47 -0.12 36.43 -0.08 0 2.31 0 2.31 -36.54 0 -36.58 0 0.12 -2.19z"/>
  <path d="M229.19 49.35 l-8 -0.12 0 -2.12 0 -2.12 36.54 0 36.58 0 -0.12 2.23 -0.12 2.19 -28.47 0 c-15.66 0 -32.04 -0.04 -36.43 -0.08z"/>
  <path d="M221.35 40.62 c-0.12 -0.31 -0.15 -1.19 -0.08 -2 l0.12 -1.50 36.47 -0.12 36.43 -0.08 0 2.12 0 2.12 -36.35 0 c-30.77 0 -36.39 -0.08 -36.58 -0.54z"/>
  <path d="M221.77 32.70 c-0.42 -0.65 1.12 -3.19 2.50 -4.12 l1.27 -0.88 32.31 0 c31.77 0 32.31 0 33.54 0.77 1.27 0.77 3.04 3.65 2.65 4.31 -0.31 0.46 -71.97 0.38 -72.28 -0.08z"/>
 </g>
 <text x="26" y="167" font-family="Arial Black, Impact, Helvetica, sans-serif" font-size="26" font-weight="900" fill="#e4131e" textLength="272" lengthAdjust="spacing">MEISTERWERK</text>
</svg>